<?xml version="1.0" standalone="no"?>
<svg version="1.0" xmlns="http://www.w3.org/2000/svg"
 width="512.000000pt" height="512.000000pt" viewBox="0 0 512 512"
 preserveAspectRatio="xMidYMid meet">
<g transform="translate(0,512) scale(0.1,-0.1)" fill="#000000" stroke="none">
<path d="M2200 4200 c-200 -30 -380 -110 -540 -240 -200 -160 -340 -380 -400
-630 -30 -120 -30 -340 0 -460 60 -250 200 -470 400 -630 160 -130 340 -210
540 -240 110 -16 290 -8 400 18 80 19 200 70 280 119 l40 24 -55 95 c-30 53
-58 99 -62 102 -3 4 -33 -8 -67 -25 -208 -107 -456 -110 -680 -8 -150 68 -266
177 -343 320 l-32 60 770 0 770 0 -7 92 c-11 152 -65 308 -150 437 -107 161
-275 290 -464 357 -110 39 -293 56 -400 39z m290 -310 c160 -30 305 -110 415
-228 78 -84 145 -210 165 -307 l8 -45 -518 0 -518 0 7 35 c33 168 174 348 339
432 109 56 226 75 332 53z"/>
<path d="M3850 2050 l-410 -700 -410 700 -410 700 105 0 105 0 305 -520 305
-520 305 520 305 520 105 0 105 0 -315 -700z"/>
</g>
</svg>